# Blender v3.0.0 OBJ File: ''
# www.blender.org
mtllib lwire.mtl
o Body_Cylinder.004
v 0.796527 0.286261 1.115670
v 0.838524 0.286261 1.115670
v 0.838524 0.259943 1.106991
v 0.796527 0.259943 1.106991
v 0.796527 0.302640 1.138068
v 0.838524 0.302640 1.138068
v 0.796527 0.302640 1.165786
v 0.838524 0.302640 1.165786
v 0.796527 0.286261 1.188184
v 0.838524 0.286261 1.188184
v 0.796527 0.259943 1.196863
v 0.838524 0.259943 1.196863
v 0.796527 0.233625 1.188184
v 0.838524 0.233625 1.188184
v 0.796527 0.217246 1.165786
v 0.838524 0.217246 1.165786
v 0.796527 0.217246 1.138068
v 0.838524 0.217246 1.138068
v 0.796527 0.233625 1.115670
v 0.838524 0.233625 1.115670
v 0.872681 0.286261 1.115670
v 0.872681 0.259943 1.106991
v 0.872681 0.302640 1.138068
v 0.872681 0.302640 1.165786
v 0.872681 0.286261 1.188184
v 0.872681 0.259943 1.196863
v 0.872681 0.233625 1.188184
v 0.872681 0.217246 1.165786
v 0.872681 0.217246 1.138068
v 0.872681 0.233625 1.115670
v 1.047947 0.286261 1.115670
v 1.047947 0.259943 1.106991
v 1.047947 0.302640 1.138068
v 1.047947 0.302640 1.165786
v 1.047947 0.286261 1.188184
v 1.047947 0.259943 1.196863
v 1.047947 0.233625 1.188184
v 1.047947 0.217246 1.165786
v 1.047947 0.217246 1.138068
v 1.047947 0.233625 1.115670
v 1.132781 0.286261 1.115670
v 1.131241 0.259943 1.106991
v 1.133761 0.302500 1.138068
v 1.133761 0.302500 1.165786
v 1.132781 0.286261 1.188184
v 1.131241 0.259943 1.196863
v 1.129701 0.233625 1.188184
v 1.128721 0.217386 1.165786
v 1.128721 0.217386 1.138068
v 1.129701 0.233625 1.115670
v 1.220974 0.275482 1.115670
v 1.213554 0.250144 1.106991
v 1.225593 0.291021 1.138068
v 1.225593 0.291021 1.165786
v 1.220974 0.275482 1.188184
v 1.213554 0.250144 1.196863
v 1.206135 0.224806 1.188184
v 1.201515 0.209127 1.165786
v 1.201515 0.209127 1.138068
v 1.206135 0.224806 1.115670
v 1.287469 0.242584 1.115670
v 1.271230 0.221866 1.106990
v 1.297548 0.255463 1.138068
v 1.297548 0.255463 1.165786
v 1.287469 0.242584 1.188184
v 1.271230 0.221866 1.196863
v 1.254851 0.201148 1.188184
v 1.244772 0.188269 1.165786
v 1.244772 0.188269 1.138068
v 1.254851 0.201148 1.115670
v 1.331285 0.190228 1.115670
v 1.308467 0.177069 1.106990
v 1.345424 0.198348 1.138068
v 1.345424 0.198348 1.165786
v 1.331285 0.190228 1.188184
v 1.308467 0.177069 1.196863
v 1.285509 0.164050 1.188184
v 1.271370 0.155931 1.165786
v 1.271370 0.155931 1.138068
v 1.285509 0.164051 1.115670
v 1.355363 0.124014 1.115670
v 1.329745 0.117714 1.106990
v 1.371322 0.127793 1.138068
v 1.371322 0.127793 1.165786
v 1.355363 0.124014 1.188184
v 1.329745 0.117714 1.196863
v 1.304127 0.111415 1.188184
v 1.288309 0.107495 1.165786
v 1.288309 0.107495 1.138068
v 1.304127 0.111415 1.115670
v 1.365863 0.047720 1.115670
v 1.339685 0.045480 1.106990
v 1.382101 0.048979 1.138068
v 1.382101 0.048979 1.165786
v 1.365863 0.047720 1.188184
v 1.339685 0.045480 1.196863
v 1.313367 0.043240 1.188184
v 1.297128 0.041840 1.165786
v 1.297128 0.041840 1.138068
v 1.313367 0.043240 1.115670
v 1.368662 -0.037254 1.115670
v 1.342344 -0.037674 1.106990
v 1.384901 -0.036974 1.138068
v 1.384901 -0.036974 1.165786
v 1.368662 -0.037254 1.188184
v 1.342344 -0.037674 1.196863
v 1.315886 -0.038094 1.188184
v 1.299648 -0.038374 1.165786
v 1.299648 -0.038374 1.138068
v 1.315886 -0.038094 1.115670
v 1.368522 -0.129927 1.115670
v 1.342204 -0.129927 1.106990
v 1.384901 -0.129927 1.138068
v 1.384901 -0.129927 1.165786
v 1.368522 -0.129927 1.188184
v 1.342204 -0.129927 1.196863
v 1.315886 -0.129927 1.188184
v 1.299508 -0.129927 1.165786
v 1.299508 -0.129927 1.138068
v 1.315886 -0.129927 1.115670
v 1.368522 -0.333331 1.115670
v 1.342204 -0.333331 1.106990
v 1.384901 -0.333331 1.138068
v 1.384901 -0.333331 1.165786
v 1.368522 -0.333331 1.188184
v 1.342204 -0.333331 1.196863
v 1.315886 -0.333331 1.188184
v 1.299508 -0.333331 1.165786
v 1.299508 -0.333331 1.138068
v 1.315886 -0.333331 1.115670
v 1.368522 -0.705982 1.115670
v 1.342204 -0.705982 1.106990
v 1.384901 -0.705982 1.138068
v 1.384901 -0.705982 1.165786
v 1.368522 -0.705982 1.188184
v 1.342204 -0.705982 1.196863
v 1.315886 -0.705982 1.188184
v 1.299508 -0.705982 1.165786
v 1.299508 -0.705982 1.138068
v 1.315886 -0.705982 1.115670
v 1.368522 -1.688285 1.115669
v 1.342204 -1.688285 1.106990
v 1.384901 -1.688285 1.138067
v 1.384901 -1.688285 1.165785
v 1.368522 -1.688285 1.188184
v 1.342204 -1.688285 1.196863
v 1.315886 -1.688285 1.188184
v 1.299508 -1.688285 1.165785
v 1.299508 -1.688285 1.138067
v 1.315886 -1.688285 1.115669
v 1.368522 -2.738483 1.115668
v 1.342204 -2.738483 1.106989
v 1.384901 -2.738483 1.138066
v 1.384901 -2.738483 1.165784
v 1.368522 -2.738483 1.188182
v 1.342204 -2.738483 1.196862
v 1.315886 -2.738483 1.188182
v 1.299508 -2.738483 1.165784
v 1.299508 -2.738483 1.138066
v 1.315886 -2.738483 1.115668
vt 0.000000 1.000000
vt 0.047619 1.000000
vt 0.047619 0.900000
vt 0.000000 0.900000
vt 0.000000 0.100000
vt 0.047619 0.100000
vt 0.047619 0.000000
vt 0.000000 0.000000
vt 0.000000 0.200000
vt 0.047619 0.200000
vt 0.000000 0.300000
vt 0.047619 0.300000
vt 0.000000 0.400000
vt 0.047619 0.400000
vt 0.000000 0.500000
vt 0.047619 0.500000
vt 0.000000 0.600000
vt 0.047619 0.600000
vt 0.000000 0.700000
vt 0.047619 0.700000
vt 0.000000 0.800000
vt 0.047619 0.800000
vt 0.095238 1.000000
vt 0.095238 0.900000
vt 0.095238 0.100000
vt 0.095238 0.000000
vt 0.095238 0.200000
vt 0.095238 0.300000
vt 0.095238 0.400000
vt 0.095238 0.500000
vt 0.095238 0.600000
vt 0.095238 0.700000
vt 0.095238 0.800000
vt 0.097819 1.000000
vt 0.295938 1.000000
vt 0.295938 0.900000
vt 0.097819 0.900000
vt 0.097819 0.100000
vt 0.295938 0.100000
vt 0.295938 0.000000
vt 0.097819 0.000000
vt 0.097819 0.200000
vt 0.295938 0.200000
vt 0.097819 0.300000
vt 0.295938 0.300000
vt 0.097819 0.400000
vt 0.295938 0.400000
vt 0.097819 0.500000
vt 0.295938 0.500000
vt 0.097819 0.600000
vt 0.295938 0.600000
vt 0.097819 0.700000
vt 0.295938 0.700000
vt 0.097819 0.800000
vt 0.295938 0.800000
vt 0.285714 1.000000
vt 0.333333 1.000000
vt 0.333333 0.900000
vt 0.285714 0.900000
vt 0.285714 0.100000
vt 0.333333 0.100000
vt 0.333333 0.000000
vt 0.285714 0.000000
vt 0.285714 0.200000
vt 0.333333 0.200000
vt 0.285714 0.300000
vt 0.333333 0.300000
vt 0.285714 0.400000
vt 0.333333 0.400000
vt 0.285714 0.500000
vt 0.333333 0.500000
vt 0.285714 0.600000
vt 0.333333 0.600000
vt 0.285714 0.700000
vt 0.333333 0.700000
vt 0.285714 0.800000
vt 0.333333 0.800000
vt 0.380952 1.000000
vt 0.380952 0.900000
vt 0.380952 0.100000
vt 0.380952 0.000000
vt 0.380952 0.200000
vt 0.380952 0.300000
vt 0.380952 0.400000
vt 0.380952 0.500000
vt 0.380952 0.600000
vt 0.380952 0.700000
vt 0.380952 0.800000
vt 0.428571 1.000000
vt 0.428571 0.900000
vt 0.428571 0.100000
vt 0.428571 0.000000
vt 0.428571 0.200000
vt 0.428571 0.300000
vt 0.428571 0.400000
vt 0.428571 0.500000
vt 0.428571 0.600000
vt 0.428571 0.700000
vt 0.428571 0.800000
vt 0.476190 1.000000
vt 0.476190 0.900000
vt 0.476190 0.100000
vt 0.476190 0.000000
vt 0.476190 0.200000
vt 0.476190 0.300000
vt 0.476190 0.400000
vt 0.476190 0.500000
vt 0.476190 0.600000
vt 0.476190 0.700000
vt 0.476190 0.800000
vt 0.523810 1.000000
vt 0.523810 0.900000
vt 0.523810 0.100000
vt 0.523810 0.000000
vt 0.523810 0.200000
vt 0.523810 0.300000
vt 0.523810 0.400000
vt 0.523810 0.500000
vt 0.523810 0.600000
vt 0.523810 0.700000
vt 0.523810 0.800000
vt 0.571429 1.000000
vt 0.571429 0.900000
vt 0.571429 0.100000
vt 0.571429 0.000000
vt 0.571429 0.200000
vt 0.571429 0.300000
vt 0.571429 0.400000
vt 0.571429 0.500000
vt 0.571429 0.600000
vt 0.571429 0.700000
vt 0.571429 0.800000
vt 0.619048 1.000000
vt 0.619048 0.900000
vt 0.619048 0.100000
vt 0.619048 0.000000
vt 0.619048 0.200000
vt 0.619048 0.300000
vt 0.619048 0.400000
vt 0.619048 0.500000
vt 0.619048 0.600000
vt 0.619048 0.700000
vt 0.619048 0.800000
vt 0.666667 1.000000
vt 0.666667 0.900000
vt 0.666667 0.100000
vt 0.666667 0.000000
vt 0.666667 0.200000
vt 0.666667 0.300000
vt 0.666667 0.400000
vt 0.666667 0.500000
vt 0.666667 0.600000
vt 0.666667 0.700000
vt 0.666667 0.800000
vt 0.714286 1.000000
vt 0.714286 0.900000
vt 0.714286 0.100000
vt 0.714286 0.000000
vt 0.714286 0.200000
vt 0.714286 0.300000
vt 0.714286 0.400000
vt 0.714286 0.500000
vt 0.714286 0.600000
vt 0.714286 0.700000
vt 0.714286 0.800000
vt 0.761905 1.000000
vt 0.761905 0.900000
vt 0.761905 0.100000
vt 0.761905 0.000000
vt 0.761905 0.200000
vt 0.761905 0.300000
vt 0.761905 0.400000
vt 0.761905 0.500000
vt 0.761905 0.600000
vt 0.761905 0.700000
vt 0.761905 0.800000
vt 0.763437 1.000000
vt 0.857143 1.000000
vt 0.857143 0.900000
vt 0.763437 0.900000
vt 0.763437 0.100000
vt 0.857143 0.100000
vt 0.857143 0.000000
vt 0.763437 -0.000000
vt 0.763437 0.200000
vt 0.857143 0.200000
vt 0.763437 0.300000
vt 0.857143 0.300000
vt 0.763437 0.400000
vt 0.857143 0.400000
vt 0.763437 0.500000
vt 0.857143 0.500000
vt 0.763437 0.600000
vt 0.857143 0.600000
vt 0.763437 0.700000
vt 0.857143 0.700000
vt 0.763436 0.800000
vt 0.857143 0.800000
vt 0.779670 1.000000
vt 1.000000 1.000000
vt 1.000000 0.900000
vt 0.779670 0.900000
vt 0.779669 0.100000
vt 1.000000 0.100000
vt 1.000000 0.000000
vt 0.779669 -0.000000
vt 0.779669 0.200000
vt 1.000000 0.200000
vt 0.779669 0.300000
vt 1.000000 0.300000
vt 0.779669 0.400000
vt 1.000000 0.400000
vt 0.779669 0.500000
vt 1.000000 0.500000
vt 0.779669 0.600000
vt 1.000000 0.600000
vt 0.779668 0.700000
vt 1.000000 0.700000
vt 0.779669 0.800000
vt 1.000000 0.800000
vn 0.0000 0.5883 -0.8086
vn 0.0000 0.0000 -1.0000
vn 0.0000 0.9511 -0.3089
vn -0.0000 0.9511 0.3089
vn 0.0000 0.9510 0.3091
vn 0.0000 0.5883 0.8086
vn 0.0000 0.0000 1.0000
vn 0.0000 -0.5883 0.8086
vn 0.0000 -0.9511 0.3089
vn 0.0000 -0.9511 -0.3089
vn 0.0000 -0.9510 -0.3091
vn 0.0000 -0.5883 -0.8086
vn 0.0002 0.5883 -0.8086
vn 0.0006 0.9508 -0.3100
vn 0.0004 0.9511 0.3090
vn 0.0002 0.5883 0.8086
vn 0.0002 -0.5879 0.8089
vn 0.0004 -0.9511 0.3088
vn 0.0004 -0.9510 -0.3092
vn 0.0002 -0.5883 -0.8086
vn 0.0368 0.5953 -0.8027
vn 0.0010 0.0118 -0.9999
vn 0.0591 0.9506 -0.3048
vn 0.0595 0.9505 0.3051
vn 0.0368 0.5953 0.8027
vn 0.0010 0.0118 0.9999
vn -0.0330 -0.5801 0.8139
vn -0.0532 -0.9485 0.3123
vn -0.0532 -0.9485 -0.3123
vn -0.0330 -0.5803 -0.8137
vn 0.1746 0.5827 -0.7937
vn 0.0102 0.0320 -0.9994
vn 0.2741 0.9137 -0.2999
vn 0.2747 0.9135 0.3001
vn 0.1746 0.5827 0.7937
vn 0.0098 0.0314 0.9995
vn -0.1582 -0.5429 0.8248
vn -0.2625 -0.9105 0.3194
vn -0.2627 -0.9104 -0.3196
vn -0.1582 -0.5428 -0.8248
vn 0.3782 0.4813 -0.7907
vn 0.0257 0.0327 -0.9991
vn 0.5897 0.7503 -0.2989
vn 0.5897 0.7503 0.2989
vn 0.3783 0.4814 0.7907
vn 0.0258 0.0328 0.9991
vn -0.3445 -0.4385 0.8300
vn -0.5845 -0.7441 0.3234
vn -0.5845 -0.7440 -0.3238
vn -0.3444 -0.4384 -0.8302
vn 0.5275 0.3045 -0.7931
vn 0.0297 0.0177 -0.9994
vn 0.8258 0.4775 -0.3000
vn 0.8259 0.4774 0.2999
vn 0.5281 0.3049 0.7926
vn 0.0297 0.0176 0.9994
vn -0.4908 -0.2783 0.8256
vn -0.8256 -0.4650 0.3197
vn -0.8255 -0.4650 -0.3199
vn -0.4908 -0.2782 -0.8257
vn 0.5841 0.1449 -0.7987
vn 0.0202 0.0054 -0.9998
vn 0.9249 0.2298 -0.3030
vn 0.9249 0.2298 0.3030
vn 0.5839 0.1448 0.7988
vn 0.0202 0.0054 0.9998
vn -0.5586 -0.1348 0.8184
vn -0.9229 -0.2214 0.3150
vn -0.9231 -0.2211 -0.3147
vn -0.5586 -0.1348 -0.8184
vn 0.5926 0.0502 -0.8039
vn 0.0104 0.0010 -0.9999
vn 0.9486 0.0807 -0.3059
vn 0.9486 0.0807 0.3059
vn 0.5926 0.0502 0.8039
vn 0.0106 0.0010 0.9999
vn -0.5795 -0.0479 0.8136
vn -0.9469 -0.0783 0.3120
vn -0.9469 -0.0783 -0.3120
vn -0.5795 -0.0479 -0.8136
vn 0.5900 0.0093 -0.8073
vn 0.0033 0.0001 -1.0000
vn 0.9512 0.0154 -0.3082
vn 0.9512 0.0154 0.3082
vn 0.5900 0.0093 0.8074
vn 0.0031 0.0001 1.0000
vn -0.5857 -0.0090 0.8105
vn -0.9506 -0.0143 0.3101
vn -0.9506 -0.0143 -0.3101
vn -0.5857 -0.0090 -0.8105
vn 0.5877 -0.0003 -0.8090
vn 0.0000 -0.0001 -1.0000
vn 0.9508 -0.0003 -0.3097
vn 0.9509 -0.0003 0.3094
vn 0.5878 -0.0003 0.8090
vn 0.0000 -0.0001 1.0000
vn -0.5879 0.0003 0.8089
vn -0.9510 0.0005 0.3091
vn -0.9509 0.0005 -0.3096
vn -0.5880 0.0003 -0.8088
vn 0.5883 0.0000 -0.8086
vn 0.9510 0.0000 -0.3093
vn 0.9510 -0.0000 0.3093
vn 0.5883 -0.0000 0.8086
vn -0.5883 -0.0000 0.8086
vn -0.9510 -0.0000 0.3093
vn -0.9510 0.0000 -0.3093
vn -0.5883 0.0000 -0.8086
vn 0.9510 0.0000 -0.3092
vn 0.9510 -0.0000 0.3092
vn -0.9510 0.0000 -0.3092
vn 0.0000 -1.0000 0.0000
vn -1.0000 0.0000 0.0000
usemtl M_Metal.004
s 1
f 1/1/1 2/2/1 3/3/2 4/4/2
f 5/5/3 6/6/3 2/7/1 1/8/1
f 7/9/4 8/10/5 6/6/3 5/5/3
f 9/11/6 10/12/6 8/10/5 7/9/4
f 11/13/7 12/14/7 10/12/6 9/11/6
f 13/15/8 14/16/8 12/14/7 11/13/7
f 15/17/9 16/18/9 14/16/8 13/15/8
f 17/19/10 18/20/11 16/18/9 15/17/9
f 19/21/12 20/22/12 18/20/11 17/19/10
f 4/4/2 3/3/2 20/22/12 19/21/12
f 2/2/1 21/23/1 22/24/2 3/3/2
f 6/6/3 23/25/3 21/26/1 2/7/1
f 8/10/5 24/27/4 23/25/3 6/6/3
f 10/12/6 25/28/6 24/27/4 8/10/5
f 12/14/7 26/29/7 25/28/6 10/12/6
f 14/16/8 27/30/8 26/29/7 12/14/7
f 16/18/9 28/31/9 27/30/8 14/16/8
f 18/20/11 29/32/10 28/31/9 16/18/9
f 20/22/12 30/33/12 29/32/10 18/20/11
f 3/3/2 22/24/2 30/33/12 20/22/12
f 21/34/1 31/35/13 32/36/2 22/37/2
f 23/38/3 33/39/14 31/40/13 21/41/1
f 24/42/4 34/43/15 33/39/14 23/38/3
f 25/44/6 35/45/16 34/43/15 24/42/4
f 26/46/7 36/47/7 35/45/16 25/44/6
f 27/48/8 37/49/17 36/47/7 26/46/7
f 28/50/9 38/51/18 37/49/17 27/48/8
f 29/52/10 39/53/19 38/51/18 28/50/9
f 30/54/12 40/55/20 39/53/19 29/52/10
f 22/37/2 32/36/2 40/55/20 30/54/12
f 31/56/13 41/57/21 42/58/22 32/59/2
f 33/60/14 43/61/23 41/62/21 31/63/13
f 34/64/15 44/65/24 43/61/23 33/60/14
f 35/66/16 45/67/25 44/65/24 34/64/15
f 36/68/7 46/69/26 45/67/25 35/66/16
f 37/70/17 47/71/27 46/69/26 36/68/7
f 38/72/18 48/73/28 47/71/27 37/70/17
f 39/74/19 49/75/29 48/73/28 38/72/18
f 40/76/20 50/77/30 49/75/29 39/74/19
f 32/59/2 42/58/22 50/77/30 40/76/20
f 41/57/21 51/78/31 52/79/32 42/58/22
f 43/61/23 53/80/33 51/81/31 41/62/21
f 44/65/24 54/82/34 53/80/33 43/61/23
f 45/67/25 55/83/35 54/82/34 44/65/24
f 46/69/26 56/84/36 55/83/35 45/67/25
f 47/71/27 57/85/37 56/84/36 46/69/26
f 48/73/28 58/86/38 57/85/37 47/71/27
f 49/75/29 59/87/39 58/86/38 48/73/28
f 50/77/30 60/88/40 59/87/39 49/75/29
f 42/58/22 52/79/32 60/88/40 50/77/30
f 51/78/31 61/89/41 62/90/42 52/79/32
f 53/80/33 63/91/43 61/92/41 51/81/31
f 54/82/34 64/93/44 63/91/43 53/80/33
f 55/83/35 65/94/45 64/93/44 54/82/34
f 56/84/36 66/95/46 65/94/45 55/83/35
f 57/85/37 67/96/47 66/95/46 56/84/36
f 58/86/38 68/97/48 67/96/47 57/85/37
f 59/87/39 69/98/49 68/97/48 58/86/38
f 60/88/40 70/99/50 69/98/49 59/87/39
f 52/79/32 62/90/42 70/99/50 60/88/40
f 61/89/41 71/100/51 72/101/52 62/90/42
f 63/91/43 73/102/53 71/103/51 61/92/41
f 64/93/44 74/104/54 73/102/53 63/91/43
f 65/94/45 75/105/55 74/104/54 64/93/44
f 66/95/46 76/106/56 75/105/55 65/94/45
f 67/96/47 77/107/57 76/106/56 66/95/46
f 68/97/48 78/108/58 77/107/57 67/96/47
f 69/98/49 79/109/59 78/108/58 68/97/48
f 70/99/50 80/110/60 79/109/59 69/98/49
f 62/90/42 72/101/52 80/110/60 70/99/50
f 71/100/51 81/111/61 82/112/62 72/101/52
f 73/102/53 83/113/63 81/114/61 71/103/51
f 74/104/54 84/115/64 83/113/63 73/102/53
f 75/105/55 85/116/65 84/115/64 74/104/54
f 76/106/56 86/117/66 85/116/65 75/105/55
f 77/107/57 87/118/67 86/117/66 76/106/56
f 78/108/58 88/119/68 87/118/67 77/107/57
f 79/109/59 89/120/69 88/119/68 78/108/58
f 80/110/60 90/121/70 89/120/69 79/109/59
f 72/101/52 82/112/62 90/121/70 80/110/60
f 81/111/61 91/122/71 92/123/72 82/112/62
f 83/113/63 93/124/73 91/125/71 81/114/61
f 84/115/64 94/126/74 93/124/73 83/113/63
f 85/116/65 95/127/75 94/126/74 84/115/64
f 86/117/66 96/128/76 95/127/75 85/116/65
f 87/118/67 97/129/77 96/128/76 86/117/66
f 88/119/68 98/130/78 97/129/77 87/118/67
f 89/120/69 99/131/79 98/130/78 88/119/68
f 90/121/70 100/132/80 99/131/79 89/120/69
f 82/112/62 92/123/72 100/132/80 90/121/70
f 91/122/71 101/133/81 102/134/82 92/123/72
f 93/124/73 103/135/83 101/136/81 91/125/71
f 94/126/74 104/137/84 103/135/83 93/124/73
f 95/127/75 105/138/85 104/137/84 94/126/74
f 96/128/76 106/139/86 105/138/85 95/127/75
f 97/129/77 107/140/87 106/139/86 96/128/76
f 98/130/78 108/141/88 107/140/87 97/129/77
f 99/131/79 109/142/89 108/141/88 98/130/78
f 100/132/80 110/143/90 109/142/89 99/131/79
f 92/123/72 102/134/82 110/143/90 100/132/80
f 101/133/81 111/144/91 112/145/92 102/134/82
f 103/135/83 113/146/93 111/147/91 101/136/81
f 104/137/84 114/148/94 113/146/93 103/135/83
f 105/138/85 115/149/95 114/148/94 104/137/84
f 106/139/86 116/150/96 115/149/95 105/138/85
f 107/140/87 117/151/97 116/150/96 106/139/86
f 108/141/88 118/152/98 117/151/97 107/140/87
f 109/142/89 119/153/99 118/152/98 108/141/88
f 110/143/90 120/154/100 119/153/99 109/142/89
f 102/134/82 112/145/92 120/154/100 110/143/90
f 111/144/91 121/155/101 122/156/2 112/145/92
f 113/146/93 123/157/102 121/158/101 111/147/91
f 114/148/94 124/159/103 123/157/102 113/146/93
f 115/149/95 125/160/104 124/159/103 114/148/94
f 116/150/96 126/161/7 125/160/104 115/149/95
f 117/151/97 127/162/105 126/161/7 116/150/96
f 118/152/98 128/163/106 127/162/105 117/151/97
f 119/153/99 129/164/107 128/163/106 118/152/98
f 120/154/100 130/165/108 129/164/107 119/153/99
f 112/145/92 122/156/2 130/165/108 120/154/100
f 121/155/101 131/166/101 132/167/2 122/156/2
f 123/157/102 133/168/102 131/169/101 121/158/101
f 124/159/103 134/170/103 133/168/102 123/157/102
f 125/160/104 135/171/104 134/170/103 124/159/103
f 126/161/7 136/172/7 135/171/104 125/160/104
f 127/162/105 137/173/105 136/172/7 126/161/7
f 128/163/106 138/174/106 137/173/105 127/162/105
f 129/164/107 139/175/107 138/174/106 128/163/106
f 130/165/108 140/176/108 139/175/107 129/164/107
f 122/156/2 132/167/2 140/176/108 130/165/108
f 131/177/101 141/178/101 142/179/2 132/180/2
f 133/181/102 143/182/102 141/183/101 131/184/101
f 134/185/103 144/186/103 143/182/102 133/181/102
f 135/187/104 145/188/104 144/186/103 134/185/103
f 136/189/7 146/190/7 145/188/104 135/187/104
f 137/191/105 147/192/105 146/190/7 136/189/7
f 138/193/106 148/194/106 147/192/105 137/191/105
f 139/195/107 149/196/107 148/194/106 138/193/106
f 140/197/108 150/198/108 149/196/107 139/195/107
f 132/180/2 142/179/2 150/198/108 140/197/108
f 141/199/101 151/200/101 152/201/2 142/202/2
f 143/203/102 153/204/109 151/205/101 141/206/101
f 144/207/103 154/208/110 153/204/109 143/203/102
f 145/209/104 155/210/104 154/208/110 144/207/103
f 146/211/7 156/212/7 155/210/104 145/209/104
f 147/213/105 157/214/105 156/212/7 146/211/7
f 148/215/106 158/216/106 157/214/105 147/213/105
f 149/217/107 159/218/111 158/216/106 148/215/106
f 150/219/108 160/220/108 159/218/111 149/217/107
f 142/202/2 152/201/2 160/220/108 150/219/108
f 152/201/112 151/205/112 153/204/112 154/208/112 155/210/112 156/212/112 157/214/112 158/216/112 159/218/112 160/220/112
f 4/4/113 19/21/113 17/19/113 15/17/113 13/15/113 11/13/113 9/11/113 7/9/113 5/5/113 1/8/113
