# Blender v3.0.0 OBJ File: ''
# www.blender.org
mtllib rwire.mtl
o Body_Cylinder.001_Body_Cylinder.005
v -0.853305 0.286261 1.115670
v -0.857474 0.286261 1.115670
v -0.857474 0.259943 1.106991
v -0.854465 0.259943 1.106991
v -0.851352 0.302640 1.138068
v -0.857474 0.302640 1.138068
v -0.849343 0.302640 1.165786
v -0.857474 0.302640 1.165786
v -0.848050 0.286261 1.188184
v -0.857474 0.286261 1.188184
v -0.847951 0.259943 1.196863
v -0.857474 0.259943 1.196863
v -0.849111 0.233625 1.188184
v -0.857474 0.233625 1.188184
v -0.851064 0.217246 1.165786
v -0.857474 0.217246 1.165786
v -0.853073 0.217246 1.138068
v -0.857474 0.217246 1.138068
v -0.854366 0.233625 1.115670
v -0.857474 0.233625 1.115670
v -0.891631 0.286261 1.115670
v -0.891631 0.259943 1.106991
v -0.891631 0.302640 1.138068
v -0.891631 0.302640 1.165786
v -0.891631 0.286261 1.188184
v -0.891631 0.259943 1.196863
v -0.891631 0.233625 1.188184
v -0.891631 0.217246 1.165786
v -0.891631 0.217246 1.138068
v -0.891631 0.233625 1.115670
v -1.066897 0.286261 1.115670
v -1.066897 0.259943 1.106991
v -1.066897 0.302640 1.138068
v -1.066897 0.302640 1.165786
v -1.066897 0.286261 1.188184
v -1.066897 0.259943 1.196863
v -1.066897 0.233625 1.188184
v -1.066897 0.217246 1.165786
v -1.066897 0.217246 1.138068
v -1.066897 0.233625 1.115670
v -1.151731 0.286261 1.115670
v -1.150191 0.259943 1.106991
v -1.152711 0.302500 1.138068
v -1.152711 0.302500 1.165786
v -1.151731 0.286261 1.188184
v -1.150191 0.259943 1.196863
v -1.148651 0.233625 1.188184
v -1.147671 0.217386 1.165786
v -1.147671 0.217386 1.138068
v -1.148651 0.233625 1.115670
v -1.239924 0.275482 1.115670
v -1.232504 0.250144 1.106991
v -1.244543 0.291021 1.138068
v -1.244543 0.291021 1.165786
v -1.239924 0.275482 1.188184
v -1.232504 0.250144 1.196863
v -1.225085 0.224806 1.188184
v -1.220465 0.209127 1.165786
v -1.220465 0.209127 1.138068
v -1.225085 0.224806 1.115670
v -1.306419 0.242584 1.115670
v -1.290180 0.221866 1.106990
v -1.316498 0.255463 1.138068
v -1.316498 0.255463 1.165786
v -1.306419 0.242584 1.188184
v -1.290180 0.221866 1.196863
v -1.273801 0.201148 1.188184
v -1.263722 0.188269 1.165786
v -1.263722 0.188269 1.138068
v -1.273801 0.201148 1.115670
v -1.350235 0.190228 1.115670
v -1.327417 0.177069 1.106990
v -1.364374 0.198348 1.138068
v -1.364374 0.198348 1.165786
v -1.350235 0.190228 1.188184
v -1.327417 0.177069 1.196863
v -1.304459 0.164050 1.188184
v -1.290320 0.155931 1.165786
v -1.290320 0.155931 1.138068
v -1.304459 0.164051 1.115670
v -1.374313 0.124014 1.115670
v -1.348695 0.117714 1.106990
v -1.390272 0.127793 1.138068
v -1.390272 0.127793 1.165786
v -1.374313 0.124014 1.188184
v -1.348695 0.117714 1.196863
v -1.323077 0.111415 1.188184
v -1.307259 0.107495 1.165786
v -1.307259 0.107495 1.138068
v -1.323077 0.111415 1.115670
v -1.384813 0.047720 1.115670
v -1.358635 0.045480 1.106990
v -1.401051 0.048979 1.138068
v -1.401051 0.048979 1.165786
v -1.384813 0.047720 1.188184
v -1.358635 0.045480 1.196863
v -1.332317 0.043240 1.188184
v -1.316078 0.041840 1.165786
v -1.316078 0.041840 1.138068
v -1.332317 0.043240 1.115670
v -1.387612 -0.037254 1.115670
v -1.361294 -0.037674 1.106990
v -1.403851 -0.036974 1.138068
v -1.403851 -0.036974 1.165786
v -1.387612 -0.037254 1.188184
v -1.361294 -0.037674 1.196863
v -1.334836 -0.038094 1.188184
v -1.318598 -0.038374 1.165786
v -1.318598 -0.038374 1.138068
v -1.334836 -0.038094 1.115670
v -1.387472 -0.129927 1.115670
v -1.361154 -0.129927 1.106990
v -1.403851 -0.129927 1.138068
v -1.403851 -0.129927 1.165786
v -1.387472 -0.129927 1.188184
v -1.361154 -0.129927 1.196863
v -1.334836 -0.129927 1.188184
v -1.318458 -0.129927 1.165786
v -1.318458 -0.129927 1.138068
v -1.334836 -0.129927 1.115670
v -1.387472 -0.333331 1.115670
v -1.361154 -0.333331 1.106990
v -1.403851 -0.333331 1.138068
v -1.403851 -0.333331 1.165786
v -1.387472 -0.333331 1.188184
v -1.361154 -0.333331 1.196863
v -1.334836 -0.333331 1.188184
v -1.318458 -0.333331 1.165786
v -1.318458 -0.333331 1.138068
v -1.334836 -0.333331 1.115670
v -1.387472 -0.705982 1.115670
v -1.361154 -0.705982 1.106990
v -1.403851 -0.705982 1.138068
v -1.403851 -0.705982 1.165786
v -1.387472 -0.705982 1.188184
v -1.361154 -0.705982 1.196863
v -1.334836 -0.705982 1.188184
v -1.318458 -0.705982 1.165786
v -1.318458 -0.705982 1.138068
v -1.334836 -0.705982 1.115670
v -1.387472 -1.688285 1.115669
v -1.361154 -1.688285 1.106990
v -1.403851 -1.688285 1.138067
v -1.403851 -1.688285 1.165785
v -1.387472 -1.688285 1.188184
v -1.361154 -1.688285 1.196863
v -1.334836 -1.688285 1.188184
v -1.318458 -1.688285 1.165785
v -1.318458 -1.688285 1.138067
v -1.334836 -1.688285 1.115669
v -1.387472 -2.738483 1.115668
v -1.361154 -2.738483 1.106989
v -1.403851 -2.738483 1.138066
v -1.403851 -2.738483 1.165784
v -1.387472 -2.738483 1.188182
v -1.361154 -2.738483 1.196862
v -1.334836 -2.738483 1.188182
v -1.318458 -2.738483 1.165784
v -1.318458 -2.738483 1.138066
v -1.334836 -2.738483 1.115668
vt 0.042892 1.000000
vt 0.047619 1.000000
vt 0.047619 0.900000
vt 0.044207 0.900000
vt 0.040677 0.100000
vt 0.047619 0.100000
vt 0.047619 0.000000
vt 0.042892 0.000000
vt 0.038400 0.200000
vt 0.047619 0.200000
vt 0.036933 0.300000
vt 0.047619 0.300000
vt 0.036822 0.400000
vt 0.047619 0.400000
vt 0.038137 0.500000
vt 0.047619 0.500000
vt 0.040352 0.600000
vt 0.047619 0.600000
vt 0.042629 0.700000
vt 0.047619 0.700000
vt 0.044096 0.800000
vt 0.047619 0.800000
vt 0.095238 1.000000
vt 0.095238 0.900000
vt 0.095238 0.100000
vt 0.095238 0.000000
vt 0.095238 0.200000
vt 0.095238 0.300000
vt 0.095238 0.400000
vt 0.095238 0.500000
vt 0.095238 0.600000
vt 0.095238 0.700000
vt 0.095238 0.800000
vt 0.097819 1.000000
vt 0.295938 1.000000
vt 0.295938 0.900000
vt 0.097819 0.900000
vt 0.097819 0.100000
vt 0.295938 0.100000
vt 0.295938 0.000000
vt 0.097819 0.000000
vt 0.097819 0.200000
vt 0.295938 0.200000
vt 0.097819 0.300000
vt 0.295938 0.300000
vt 0.097819 0.400000
vt 0.295938 0.400000
vt 0.097819 0.500000
vt 0.295938 0.500000
vt 0.097819 0.600000
vt 0.295938 0.600000
vt 0.097819 0.700000
vt 0.295938 0.700000
vt 0.097819 0.800000
vt 0.295938 0.800000
vt 0.285714 1.000000
vt 0.333333 1.000000
vt 0.333333 0.900000
vt 0.285714 0.900000
vt 0.285714 0.100000
vt 0.333333 0.100000
vt 0.333333 0.000000
vt 0.285714 0.000000
vt 0.285714 0.200000
vt 0.333333 0.200000
vt 0.285714 0.300000
vt 0.333333 0.300000
vt 0.285714 0.400000
vt 0.333333 0.400000
vt 0.285714 0.500000
vt 0.333333 0.500000
vt 0.285714 0.600000
vt 0.333333 0.600000
vt 0.285714 0.700000
vt 0.333333 0.700000
vt 0.285714 0.800000
vt 0.333333 0.800000
vt 0.380952 1.000000
vt 0.380952 0.900000
vt 0.380952 0.100000
vt 0.380952 0.000000
vt 0.380952 0.200000
vt 0.380952 0.300000
vt 0.380952 0.400000
vt 0.380952 0.500000
vt 0.380952 0.600000
vt 0.380952 0.700000
vt 0.380952 0.800000
vt 0.428571 1.000000
vt 0.428571 0.900000
vt 0.428571 0.100000
vt 0.428571 0.000000
vt 0.428571 0.200000
vt 0.428571 0.300000
vt 0.428571 0.400000
vt 0.428571 0.500000
vt 0.428571 0.600000
vt 0.428571 0.700000
vt 0.428571 0.800000
vt 0.476190 1.000000
vt 0.476190 0.900000
vt 0.476190 0.100000
vt 0.476190 0.000000
vt 0.476190 0.200000
vt 0.476190 0.300000
vt 0.476190 0.400000
vt 0.476190 0.500000
vt 0.476190 0.600000
vt 0.476190 0.700000
vt 0.476190 0.800000
vt 0.523810 1.000000
vt 0.523810 0.900000
vt 0.523810 0.100000
vt 0.523810 0.000000
vt 0.523810 0.200000
vt 0.523810 0.300000
vt 0.523810 0.400000
vt 0.523810 0.500000
vt 0.523810 0.600000
vt 0.523810 0.700000
vt 0.523810 0.800000
vt 0.571429 1.000000
vt 0.571429 0.900000
vt 0.571429 0.100000
vt 0.571429 0.000000
vt 0.571429 0.200000
vt 0.571429 0.300000
vt 0.571429 0.400000
vt 0.571429 0.500000
vt 0.571429 0.600000
vt 0.571429 0.700000
vt 0.571429 0.800000
vt 0.619048 1.000000
vt 0.619048 0.900000
vt 0.619048 0.100000
vt 0.619048 0.000000
vt 0.619048 0.200000
vt 0.619048 0.300000
vt 0.619048 0.400000
vt 0.619048 0.500000
vt 0.619048 0.600000
vt 0.619048 0.700000
vt 0.619048 0.800000
vt 0.666667 1.000000
vt 0.666667 0.900000
vt 0.666667 0.100000
vt 0.666667 0.000000
vt 0.666667 0.200000
vt 0.666667 0.300000
vt 0.666667 0.400000
vt 0.666667 0.500000
vt 0.666667 0.600000
vt 0.666667 0.700000
vt 0.666667 0.800000
vt 0.714286 1.000000
vt 0.714286 0.900000
vt 0.714286 0.100000
vt 0.714286 0.000000
vt 0.714286 0.200000
vt 0.714286 0.300000
vt 0.714286 0.400000
vt 0.714286 0.500000
vt 0.714286 0.600000
vt 0.714286 0.700000
vt 0.714286 0.800000
vt 0.761905 1.000000
vt 0.761905 0.900000
vt 0.761905 0.100000
vt 0.761905 0.000000
vt 0.761905 0.200000
vt 0.761905 0.300000
vt 0.761905 0.400000
vt 0.761905 0.500000
vt 0.761905 0.600000
vt 0.761905 0.700000
vt 0.761905 0.800000
vt 0.763437 1.000000
vt 0.857143 1.000000
vt 0.857143 0.900000
vt 0.763437 0.900000
vt 0.763437 0.100000
vt 0.857143 0.100000
vt 0.857143 0.000000
vt 0.763437 -0.000000
vt 0.763437 0.200000
vt 0.857143 0.200000
vt 0.763437 0.300000
vt 0.857143 0.300000
vt 0.763437 0.400000
vt 0.857143 0.400000
vt 0.763437 0.500000
vt 0.857143 0.500000
vt 0.763437 0.600000
vt 0.857143 0.600000
vt 0.763437 0.700000
vt 0.857143 0.700000
vt 0.763436 0.800000
vt 0.857143 0.800000
vt 0.779670 1.000000
vt 1.000000 1.000000
vt 1.000000 0.900000
vt 0.779670 0.900000
vt 0.779669 0.100000
vt 1.000000 0.100000
vt 1.000000 0.000000
vt 0.779669 -0.000000
vt 0.779669 0.200000
vt 1.000000 0.200000
vt 0.779669 0.300000
vt 1.000000 0.300000
vt 0.779669 0.400000
vt 1.000000 0.400000
vt 0.779669 0.500000
vt 1.000000 0.500000
vt 0.779669 0.600000
vt 1.000000 0.600000
vt 0.779668 0.700000
vt 1.000000 0.700000
vt 0.779669 0.800000
vt 1.000000 0.800000
vn -0.0000 -0.5885 0.8085
vn -0.0000 -0.5879 0.8089
vn 0.0000 -0.0000 1.0000
vn 0.0016 -0.9506 0.3105
vn 0.0000 -0.9511 0.3089
vn 0.0000 -0.9501 -0.3120
vn 0.0000 -0.9511 -0.3089
vn 0.0002 -0.5884 -0.8086
vn 0.0000 -0.5883 -0.8086
vn 0.0000 0.0000 -1.0000
vn 0.0000 0.5885 -0.8085
vn 0.0000 0.5880 -0.8088
vn 0.0016 0.9506 -0.3105
vn 0.0000 0.9511 -0.3090
vn 0.0000 0.9501 0.3120
vn 0.0000 0.9511 0.3089
vn 0.0002 0.5883 0.8086
vn 0.0000 0.5883 0.8086
vn 0.0000 -0.5883 0.8086
vn 0.0000 0.5883 -0.8086
vn 0.0000 0.9511 -0.3089
vn 0.0002 -0.5882 0.8087
vn 0.0005 -0.9510 0.3093
vn 0.0004 -0.9511 -0.3090
vn 0.0002 -0.5882 -0.8087
vn 0.0002 0.5882 -0.8087
vn 0.0004 0.9511 -0.3088
vn 0.0004 0.9511 0.3089
vn 0.0002 0.5887 0.8083
vn 0.0368 -0.5952 0.8027
vn 0.0010 -0.0118 0.9999
vn 0.0595 -0.9505 0.3051
vn 0.0595 -0.9505 -0.3051
vn 0.0368 -0.5953 -0.8027
vn 0.0010 -0.0118 -0.9999
vn -0.0330 0.5802 -0.8138
vn -0.0532 0.9485 -0.3123
vn -0.0532 0.9485 0.3123
vn -0.0330 0.5802 0.8138
vn 0.1746 -0.5827 0.7937
vn 0.0098 -0.0315 0.9995
vn 0.2741 -0.9137 0.2999
vn 0.2741 -0.9137 -0.2999
vn 0.1746 -0.5827 -0.7937
vn 0.0099 -0.0315 -0.9995
vn -0.1581 0.5428 -0.8249
vn -0.2628 0.9104 -0.3197
vn -0.2628 0.9103 0.3197
vn -0.1581 0.5427 0.8249
vn 0.3782 -0.4814 0.7907
vn 0.0255 -0.0324 0.9991
vn 0.5897 -0.7503 0.2989
vn 0.5897 -0.7503 -0.2989
vn 0.3785 -0.4816 -0.7904
vn 0.0256 -0.0325 -0.9991
vn -0.3445 0.4386 -0.8300
vn -0.5845 0.7441 -0.3236
vn -0.5845 0.7440 0.3238
vn -0.3446 0.4387 0.8300
vn 0.5275 -0.3045 0.7931
vn 0.0295 -0.0176 0.9994
vn 0.8258 -0.4775 0.3000
vn 0.8257 -0.4775 -0.3005
vn 0.5281 -0.3049 -0.7926
vn 0.0297 -0.0177 -0.9994
vn -0.4908 0.2783 -0.8256
vn -0.8255 0.4650 -0.3199
vn -0.8254 0.4649 0.3204
vn -0.4907 0.2782 0.8257
vn 0.5838 -0.1447 0.7989
vn 0.0202 -0.0054 0.9998
vn 0.9249 -0.2298 0.3029
vn 0.9249 -0.2298 -0.3029
vn 0.5839 -0.1448 -0.7988
vn 0.0202 -0.0054 -0.9998
vn -0.5587 0.1348 -0.8183
vn -0.9229 0.2214 -0.3150
vn -0.9229 0.2214 0.3150
vn -0.5586 0.1348 0.8184
vn 0.5925 -0.0502 0.8040
vn 0.0101 -0.0010 0.9999
vn 0.9486 -0.0807 0.3059
vn 0.9486 -0.0807 -0.3059
vn 0.5926 -0.0502 -0.8040
vn 0.0101 -0.0010 -0.9999
vn -0.5794 0.0479 -0.8136
vn -0.9469 0.0783 -0.3120
vn -0.9469 0.0783 0.3120
vn -0.5794 0.0479 0.8136
vn 0.5900 -0.0093 0.8073
vn 0.0033 -0.0001 1.0000
vn 0.9512 -0.0154 0.3082
vn 0.9512 -0.0154 -0.3082
vn 0.5899 -0.0093 -0.8074
vn 0.0031 -0.0001 -1.0000
vn -0.5857 0.0090 -0.8105
vn -0.9506 0.0143 -0.3101
vn -0.9506 0.0143 0.3101
vn -0.5857 0.0090 0.8105
vn 0.5878 0.0003 0.8090
vn 0.0000 0.0001 1.0000
vn 0.9510 0.0004 0.3093
vn 0.9509 0.0003 -0.3094
vn 0.5882 0.0003 -0.8087
vn 0.0000 0.0001 -1.0000
vn -0.5886 -0.0002 -0.8084
vn -0.9509 -0.0005 -0.3096
vn -0.9509 -0.0005 0.3095
vn -0.5880 -0.0003 0.8088
vn 0.5883 -0.0000 0.8086
vn 0.9511 -0.0000 0.3090
vn 0.9511 0.0000 -0.3090
vn 0.5883 0.0000 -0.8086
vn -0.5883 0.0000 -0.8086
vn -0.9510 0.0000 -0.3092
vn -0.9510 -0.0000 0.3092
vn -0.5883 -0.0000 0.8086
vn 0.9510 -0.0000 0.3092
vn 0.9510 -0.0000 -0.3091
vn 0.5879 0.0000 -0.8089
vn 0.9510 -0.0000 0.3090
vn 0.9510 -0.0000 -0.3092
vn -0.9510 0.0000 -0.3091
vn -0.9511 0.0000 0.3090
vn 0.9510 -0.0000 -0.3093
vn -0.9510 0.0000 -0.3093
vn -0.9510 -0.0000 0.3093
vn 0.0000 1.0000 0.0000
usemtl M_Metal.004
s 1
f 1/1/1 2/2/2 3/3/3 4/4/3
f 5/5/4 6/6/5 2/7/2 1/8/1
f 7/9/6 8/10/7 6/6/5 5/5/4
f 9/11/8 10/12/9 8/10/7 7/9/6
f 11/13/10 12/14/10 10/12/9 9/11/8
f 13/15/11 14/16/12 12/14/10 11/13/10
f 15/17/13 16/18/14 14/16/12 13/15/11
f 17/19/15 18/20/16 16/18/14 15/17/13
f 19/21/17 20/22/18 18/20/16 17/19/15
f 4/4/3 3/3/3 20/22/18 19/21/17
f 2/2/2 21/23/19 22/24/3 3/3/3
f 6/6/5 23/25/5 21/26/19 2/7/2
f 8/10/7 24/27/7 23/25/5 6/6/5
f 10/12/9 25/28/9 24/27/7 8/10/7
f 12/14/10 26/29/10 25/28/9 10/12/9
f 14/16/12 27/30/20 26/29/10 12/14/10
f 16/18/14 28/31/21 27/30/20 14/16/12
f 18/20/16 29/32/16 28/31/21 16/18/14
f 20/22/18 30/33/18 29/32/16 18/20/16
f 3/3/3 22/24/3 30/33/18 20/22/18
f 21/34/19 31/35/22 32/36/3 22/37/3
f 23/38/5 33/39/23 31/40/22 21/41/19
f 24/42/7 34/43/24 33/39/23 23/38/5
f 25/44/9 35/45/25 34/43/24 24/42/7
f 26/46/10 36/47/10 35/45/25 25/44/9
f 27/48/20 37/49/26 36/47/10 26/46/10
f 28/50/21 38/51/27 37/49/26 27/48/20
f 29/52/16 39/53/28 38/51/27 28/50/21
f 30/54/18 40/55/29 39/53/28 29/52/16
f 22/37/3 32/36/3 40/55/29 30/54/18
f 31/56/22 41/57/30 42/58/31 32/59/3
f 33/60/23 43/61/32 41/62/30 31/63/22
f 34/64/24 44/65/33 43/61/32 33/60/23
f 35/66/25 45/67/34 44/65/33 34/64/24
f 36/68/10 46/69/35 45/67/34 35/66/25
f 37/70/26 47/71/36 46/69/35 36/68/10
f 38/72/27 48/73/37 47/71/36 37/70/26
f 39/74/28 49/75/38 48/73/37 38/72/27
f 40/76/29 50/77/39 49/75/38 39/74/28
f 32/59/3 42/58/31 50/77/39 40/76/29
f 41/57/30 51/78/40 52/79/41 42/58/31
f 43/61/32 53/80/42 51/81/40 41/62/30
f 44/65/33 54/82/43 53/80/42 43/61/32
f 45/67/34 55/83/44 54/82/43 44/65/33
f 46/69/35 56/84/45 55/83/44 45/67/34
f 47/71/36 57/85/46 56/84/45 46/69/35
f 48/73/37 58/86/47 57/85/46 47/71/36
f 49/75/38 59/87/48 58/86/47 48/73/37
f 50/77/39 60/88/49 59/87/48 49/75/38
f 42/58/31 52/79/41 60/88/49 50/77/39
f 51/78/40 61/89/50 62/90/51 52/79/41
f 53/80/42 63/91/52 61/92/50 51/81/40
f 54/82/43 64/93/53 63/91/52 53/80/42
f 55/83/44 65/94/54 64/93/53 54/82/43
f 56/84/45 66/95/55 65/94/54 55/83/44
f 57/85/46 67/96/56 66/95/55 56/84/45
f 58/86/47 68/97/57 67/96/56 57/85/46
f 59/87/48 69/98/58 68/97/57 58/86/47
f 60/88/49 70/99/59 69/98/58 59/87/48
f 52/79/41 62/90/51 70/99/59 60/88/49
f 61/89/50 71/100/60 72/101/61 62/90/51
f 63/91/52 73/102/62 71/103/60 61/92/50
f 64/93/53 74/104/63 73/102/62 63/91/52
f 65/94/54 75/105/64 74/104/63 64/93/53
f 66/95/55 76/106/65 75/105/64 65/94/54
f 67/96/56 77/107/66 76/106/65 66/95/55
f 68/97/57 78/108/67 77/107/66 67/96/56
f 69/98/58 79/109/68 78/108/67 68/97/57
f 70/99/59 80/110/69 79/109/68 69/98/58
f 62/90/51 72/101/61 80/110/69 70/99/59
f 71/100/60 81/111/70 82/112/71 72/101/61
f 73/102/62 83/113/72 81/114/70 71/103/60
f 74/104/63 84/115/73 83/113/72 73/102/62
f 75/105/64 85/116/74 84/115/73 74/104/63
f 76/106/65 86/117/75 85/116/74 75/105/64
f 77/107/66 87/118/76 86/117/75 76/106/65
f 78/108/67 88/119/77 87/118/76 77/107/66
f 79/109/68 89/120/78 88/119/77 78/108/67
f 80/110/69 90/121/79 89/120/78 79/109/68
f 72/101/61 82/112/71 90/121/79 80/110/69
f 81/111/70 91/122/80 92/123/81 82/112/71
f 83/113/72 93/124/82 91/125/80 81/114/70
f 84/115/73 94/126/83 93/124/82 83/113/72
f 85/116/74 95/127/84 94/126/83 84/115/73
f 86/117/75 96/128/85 95/127/84 85/116/74
f 87/118/76 97/129/86 96/128/85 86/117/75
f 88/119/77 98/130/87 97/129/86 87/118/76
f 89/120/78 99/131/88 98/130/87 88/119/77
f 90/121/79 100/132/89 99/131/88 89/120/78
f 82/112/71 92/123/81 100/132/89 90/121/79
f 91/122/80 101/133/90 102/134/91 92/123/81
f 93/124/82 103/135/92 101/136/90 91/125/80
f 94/126/83 104/137/93 103/135/92 93/124/82
f 95/127/84 105/138/94 104/137/93 94/126/83
f 96/128/85 106/139/95 105/138/94 95/127/84
f 97/129/86 107/140/96 106/139/95 96/128/85
f 98/130/87 108/141/97 107/140/96 97/129/86
f 99/131/88 109/142/98 108/141/97 98/130/87
f 100/132/89 110/143/99 109/142/98 99/131/88
f 92/123/81 102/134/91 110/143/99 100/132/89
f 101/133/90 111/144/100 112/145/101 102/134/91
f 103/135/92 113/146/102 111/147/100 101/136/90
f 104/137/93 114/148/103 113/146/102 103/135/92
f 105/138/94 115/149/104 114/148/103 104/137/93
f 106/139/95 116/150/105 115/149/104 105/138/94
f 107/140/96 117/151/106 116/150/105 106/139/95
f 108/141/97 118/152/107 117/151/106 107/140/96
f 109/142/98 119/153/108 118/152/107 108/141/97
f 110/143/99 120/154/109 119/153/108 109/142/98
f 102/134/91 112/145/101 120/154/109 110/143/99
f 111/144/100 121/155/110 122/156/3 112/145/101
f 113/146/102 123/157/111 121/158/110 111/147/100
f 114/148/103 124/159/112 123/157/111 113/146/102
f 115/149/104 125/160/113 124/159/112 114/148/103
f 116/150/105 126/161/10 125/160/113 115/149/104
f 117/151/106 127/162/114 126/161/10 116/150/105
f 118/152/107 128/163/115 127/162/114 117/151/106
f 119/153/108 129/164/116 128/163/115 118/152/107
f 120/154/109 130/165/117 129/164/116 119/153/108
f 112/145/101 122/156/3 130/165/117 120/154/109
f 121/155/110 131/166/110 132/167/3 122/156/3
f 123/157/111 133/168/118 131/169/110 121/158/110
f 124/159/112 134/170/119 133/168/118 123/157/111
f 125/160/113 135/171/120 134/170/119 124/159/112
f 126/161/10 136/172/10 135/171/120 125/160/113
f 127/162/114 137/173/114 136/172/10 126/161/10
f 128/163/115 138/174/115 137/173/114 127/162/114
f 129/164/116 139/175/116 138/174/115 128/163/115
f 130/165/117 140/176/117 139/175/116 129/164/116
f 122/156/3 132/167/3 140/176/117 130/165/117
f 131/177/110 141/178/110 142/179/3 132/180/3
f 133/181/118 143/182/121 141/183/110 131/184/110
f 134/185/119 144/186/122 143/182/121 133/181/118
f 135/187/120 145/188/120 144/186/122 134/185/119
f 136/189/10 146/190/10 145/188/120 135/187/120
f 137/191/114 147/192/114 146/190/10 136/189/10
f 138/193/115 148/194/123 147/192/114 137/191/114
f 139/195/116 149/196/124 148/194/123 138/193/115
f 140/197/117 150/198/117 149/196/124 139/195/116
f 132/180/3 142/179/3 150/198/117 140/197/117
f 141/199/110 151/200/110 152/201/3 142/202/3
f 143/203/121 153/204/118 151/205/110 141/206/110
f 144/207/122 154/208/125 153/204/118 143/203/121
f 145/209/120 155/210/113 154/208/125 144/207/122
f 146/211/10 156/212/10 155/210/113 145/209/120
f 147/213/114 157/214/114 156/212/10 146/211/10
f 148/215/123 158/216/126 157/214/114 147/213/114
f 149/217/124 159/218/127 158/216/126 148/215/123
f 150/219/117 160/220/117 159/218/127 149/217/124
f 142/202/3 152/201/3 160/220/117 150/219/117
f 152/201/128 151/205/128 153/204/128 154/208/128 155/210/128 156/212/128 157/214/128 158/216/128 159/218/128 160/220/128
